<?xml version="1.0" encoding="UTF-8" standalone="no"?>
<!DOCTYPE svg PUBLIC "-//W3C//DTD SVG 1.1//EN"
 "http://www.w3.org/Graphics/SVG/1.1/DTD/svg11.dtd">
<!-- Generated by graphviz version 2.38.0 (20140413.2041)
 -->
<!-- Title: G Pages: 1 -->
<svg width="2826pt" height="1497pt"
 viewBox="0.00 0.00 2826.47 1496.68" xmlns="http://www.w3.org/2000/svg" xmlns:xlink="http://www.w3.org/1999/xlink">
<g id="graph0" class="graph" transform="scale(1 1) rotate(0) translate(4 1492.68)">
<title>G</title>
<polygon fill="white" stroke="none" points="-4,4 -4,-1492.68 2822.47,-1492.68 2822.47,4 -4,4"/>
<text text-anchor="middle" x="1409.24" y="-1473.48" font-family="Times,serif" font-size="14.00">nngraph_4in_1out</text>
<!-- n1 -->
<g id="node1" class="node"><title>n1</title>
<g id="a_node1"><a xlink:title="[create_C_mimick.lua]:42_">
<ellipse fill="red" stroke="black" cx="1189.74" cy="-211.362" rx="183.65" ry="104.804"/>
<text text-anchor="middle" x="1189.74" y="-270.162" font-family="Times,serif" font-size="14.00">prob (1)</text>
<text text-anchor="start" x="1067.75" y="-256.162" font-family="Times,serif" font-size="14.00">input = {Tensor[3x1000]}</text>
<text text-anchor="start" x="1067.75" y="-242.162" font-family="Times,serif" font-size="14.00">module = nn.Sequential {</text>
<text text-anchor="start" x="1067.75" y="-228.162" font-family="Times,serif" font-size="14.00"> &#160;[input &#45;&gt; (1) &#45;&gt; (2) &#45;&gt; (3) &#45;&gt; (4) &#45;&gt; output]</text>
<text text-anchor="start" x="1067.75" y="-214.162" font-family="Times,serif" font-size="14.00"> &#160;(1): nn.Linear(3 &#45;&gt; 2)</text>
<text text-anchor="start" x="1067.75" y="-200.162" font-family="Times,serif" font-size="14.00"> &#160;(2): nn.Abs</text>
<text text-anchor="start" x="1067.75" y="-186.162" font-family="Times,serif" font-size="14.00"> &#160;(3): nn.Linear(2 &#45;&gt; 1)</text>
<text text-anchor="start" x="1067.75" y="-172.162" font-family="Times,serif" font-size="14.00"> &#160;(4): nn.Sigmoid</text>
<text text-anchor="start" x="1067.75" y="-158.162" font-family="Times,serif" font-size="14.00">}</text>
<text text-anchor="middle" x="1189.74" y="-144.162" font-family="Times,serif" font-size="14.00">reverseMap = {}</text>
</a>
</g>
</g>
<!-- n2 -->
<g id="node2" class="node"><title>n2</title>
<g id="a_node2"><a xlink:title="[[C]]:&#45;1_">
<ellipse fill="none" stroke="black" cx="1189.74" cy="-35.3553" rx="78.145" ry="35.2113"/>
<text text-anchor="middle" x="1189.74" y="-45.1553" font-family="Times,serif" font-size="14.00">Node2</text>
<text text-anchor="start" x="1142.53" y="-31.1553" font-family="Times,serif" font-size="14.00">input = {}</text>
<text text-anchor="middle" x="1189.74" y="-17.1553" font-family="Times,serif" font-size="14.00">reverseMap = {}</text>
</a>
</g>
</g>
<!-- n1&#45;&gt;n2 -->
<g id="edge1" class="edge"><title>n1&#45;&gt;n2</title>
<path fill="none" stroke="black" d="M1189.74,-106.629C1189.74,-97.7224 1189.74,-89.0588 1189.74,-81.0309"/>
<polygon fill="black" stroke="black" points="1193.24,-80.8765 1189.74,-70.8765 1186.24,-80.8766 1193.24,-80.8765"/>
</g>
<!-- n3 -->
<g id="node3" class="node"><title>n3</title>
<g id="a_node3"><a xlink:title="[create_C_mimick.lua]:34_">
<ellipse fill="none" stroke="black" cx="1189.74" cy="-407.169" rx="245.838" ry="55.3091"/>
<text text-anchor="middle" x="1189.74" y="-430.969" font-family="Times,serif" font-size="14.00">input (3)</text>
<text text-anchor="start" x="1023.84" y="-416.969" font-family="Times,serif" font-size="14.00">input = {Tensor[1x1000],Tensor[1x1000],Tensor[1x1000]}</text>
<text text-anchor="start" x="1023.84" y="-402.969" font-family="Times,serif" font-size="14.00">module = nn.JoinTable</text>
<text text-anchor="start" x="1023.84" y="-388.969" font-family="Times,serif" font-size="14.00">reverseMap = {}</text>
<text text-anchor="middle" x="1189.74" y="-374.969" font-family="Times,serif" font-size="14.00">mapindex = {Node4,Node5,Node6}</text>
</a>
</g>
</g>
<!-- n3&#45;&gt;n1 -->
<g id="edge2" class="edge"><title>n3&#45;&gt;n1</title>
<path fill="none" stroke="black" d="M1189.74,-351.925C1189.74,-343.789 1189.74,-335.151 1189.74,-326.319"/>
<polygon fill="black" stroke="black" points="1193.24,-326.28 1189.74,-316.28 1186.24,-326.28 1193.24,-326.28"/>
</g>
<!-- n4 -->
<g id="node4" class="node"><title>n4</title>
<g id="a_node4"><a xlink:title="[create_C_mimick.lua]:30_">
<ellipse fill="none" stroke="black" cx="1189.74" cy="-543.578" rx="109.513" ry="45.011"/>
<text text-anchor="middle" x="1189.74" y="-560.378" font-family="Times,serif" font-size="14.00">conf_pred11 (4)</text>
<text text-anchor="start" x="1120.3" y="-546.378" font-family="Times,serif" font-size="14.00">input = {Tensor[1000]}</text>
<text text-anchor="start" x="1120.3" y="-532.378" font-family="Times,serif" font-size="14.00">module = nn.View(1, &#45;1)</text>
<text text-anchor="middle" x="1189.74" y="-518.378" font-family="Times,serif" font-size="14.00">reverseMap = {}</text>
</a>
</g>
</g>
<!-- n4&#45;&gt;n3 -->
<g id="edge3" class="edge"><title>n4&#45;&gt;n3</title>
<path fill="none" stroke="black" d="M1189.74,-498.195C1189.74,-489.951 1189.74,-481.187 1189.74,-472.488"/>
<polygon fill="black" stroke="black" points="1193.24,-472.34 1189.74,-462.34 1186.24,-472.34 1193.24,-472.34"/>
</g>
<!-- n5 -->
<g id="node5" class="node"><title>n5</title>
<g id="a_node5"><a xlink:title="[create_C_mimick.lua]:31_">
<ellipse fill="none" stroke="black" cx="1512.74" cy="-543.578" rx="109.513" ry="45.011"/>
<text text-anchor="middle" x="1512.74" y="-560.378" font-family="Times,serif" font-size="14.00">conf_pred22 (5)</text>
<text text-anchor="start" x="1443.3" y="-546.378" font-family="Times,serif" font-size="14.00">input = {Tensor[1000]}</text>
<text text-anchor="start" x="1443.3" y="-532.378" font-family="Times,serif" font-size="14.00">module = nn.View(1, &#45;1)</text>
<text text-anchor="middle" x="1512.74" y="-518.378" font-family="Times,serif" font-size="14.00">reverseMap = {}</text>
</a>
</g>
</g>
<!-- n5&#45;&gt;n3 -->
<g id="edge4" class="edge"><title>n5&#45;&gt;n3</title>
<path fill="none" stroke="black" d="M1436.6,-510.895C1400.01,-495.67 1355.22,-477.032 1313.89,-459.832"/>
<polygon fill="black" stroke="black" points="1315.15,-456.566 1304.57,-455.956 1312.46,-463.029 1315.15,-456.566"/>
</g>
<!-- n6 -->
<g id="node6" class="node"><title>n6</title>
<g id="a_node6"><a xlink:title="[create_C_mimick.lua]:32_">
<ellipse fill="none" stroke="black" cx="798.736" cy="-679.987" rx="109.513" ry="45.011"/>
<text text-anchor="middle" x="798.736" y="-696.787" font-family="Times,serif" font-size="14.00">confidence11 (6)</text>
<text text-anchor="start" x="729.303" y="-682.787" font-family="Times,serif" font-size="14.00">input = {Tensor[1000]}</text>
<text text-anchor="start" x="729.303" y="-668.787" font-family="Times,serif" font-size="14.00">module = nn.View(1, &#45;1)</text>
<text text-anchor="middle" x="798.736" y="-654.787" font-family="Times,serif" font-size="14.00">reverseMap = {}</text>
</a>
</g>
</g>
<!-- n6&#45;&gt;n3 -->
<g id="edge5" class="edge"><title>n6&#45;&gt;n3</title>
<path fill="none" stroke="black" d="M853.927,-640.76C919.702,-595.202 1030.26,-518.626 1106.45,-465.857"/>
<polygon fill="black" stroke="black" points="1108.87,-468.437 1115.1,-459.865 1104.88,-462.682 1108.87,-468.437"/>
</g>
<!-- n7 -->
<g id="node7" class="node"><title>n7</title>
<g id="a_node7"><a xlink:title="[create_C_mimick.lua]:27_">
<ellipse fill="none" stroke="black" cx="1189.74" cy="-679.987" rx="190.008" ry="55.3091"/>
<text text-anchor="middle" x="1189.74" y="-703.787" font-family="Times,serif" font-size="14.00">conf_pred1 (7)</text>
<text text-anchor="start" x="1063.21" y="-689.787" font-family="Times,serif" font-size="14.00">input = {Tensor[1000x42],Tensor[1000x42]}</text>
<text text-anchor="start" x="1063.21" y="-675.787" font-family="Times,serif" font-size="14.00">module = nn.DotProduct</text>
<text text-anchor="start" x="1063.21" y="-661.787" font-family="Times,serif" font-size="14.00">reverseMap = {}</text>
<text text-anchor="middle" x="1189.74" y="-647.787" font-family="Times,serif" font-size="14.00">mapindex = {Node10,Node11}</text>
</a>
</g>
</g>
<!-- n7&#45;&gt;n4 -->
<g id="edge6" class="edge"><title>n7&#45;&gt;n4</title>
<path fill="none" stroke="black" d="M1189.74,-624.705C1189.74,-616.314 1189.74,-607.643 1189.74,-599.244"/>
<polygon fill="black" stroke="black" points="1193.24,-599.169 1189.74,-589.169 1186.24,-599.169 1193.24,-599.169"/>
</g>
<!-- n8 -->
<g id="node8" class="node"><title>n8</title>
<g id="a_node8"><a xlink:title="[create_C_mimick.lua]:28_">
<ellipse fill="none" stroke="black" cx="1598.74" cy="-679.987" rx="190.008" ry="55.3091"/>
<text text-anchor="middle" x="1598.74" y="-703.787" font-family="Times,serif" font-size="14.00">conf_pred2 (8)</text>
<text text-anchor="start" x="1472.21" y="-689.787" font-family="Times,serif" font-size="14.00">input = {Tensor[1000x42],Tensor[1000x42]}</text>
<text text-anchor="start" x="1472.21" y="-675.787" font-family="Times,serif" font-size="14.00">module = nn.DotProduct</text>
<text text-anchor="start" x="1472.21" y="-661.787" font-family="Times,serif" font-size="14.00">reverseMap = {}</text>
<text text-anchor="middle" x="1598.74" y="-647.787" font-family="Times,serif" font-size="14.00">mapindex = {Node12,Node11}</text>
</a>
</g>
</g>
<!-- n8&#45;&gt;n5 -->
<g id="edge7" class="edge"><title>n8&#45;&gt;n5</title>
<path fill="none" stroke="black" d="M1564.5,-625.479C1558.33,-615.838 1551.91,-605.805 1545.78,-596.219"/>
<polygon fill="black" stroke="black" points="1548.58,-594.102 1540.24,-587.565 1542.68,-597.875 1548.58,-594.102"/>
</g>
<!-- n9 -->
<g id="node9" class="node"><title>n9</title>
<g id="a_node9"><a xlink:title="[create_C_mimick.lua]:19_">
<ellipse fill="none" stroke="black" cx="418.736" cy="-1061.7" rx="104.78" ry="45.011"/>
<text text-anchor="middle" x="418.736" y="-1078.5" font-family="Times,serif" font-size="14.00">confidence (9)</text>
<text text-anchor="start" x="352.567" y="-1064.5" font-family="Times,serif" font-size="14.00">input = {Tensor[1000]}</text>
<text text-anchor="start" x="352.567" y="-1050.5" font-family="Times,serif" font-size="14.00">module = nn.Identity</text>
<text text-anchor="middle" x="418.736" y="-1036.5" font-family="Times,serif" font-size="14.00">reverseMap = {}</text>
</a>
</g>
</g>
<!-- n9&#45;&gt;n6 -->
<g id="edge8" class="edge"><title>n9&#45;&gt;n6</title>
<path fill="none" stroke="black" d="M459.764,-1019.7C530.505,-949.015 675.081,-804.548 750.513,-729.174"/>
<polygon fill="black" stroke="black" points="752.992,-731.644 757.592,-722.1 748.044,-726.692 752.992,-731.644"/>
</g>
<!-- n10 -->
<g id="node10" class="node"><title>n10</title>
<g id="a_node10"><a xlink:title="[create_C_mimick.lua]:24_">
<ellipse fill="none" stroke="black" cx="1150.74" cy="-875.793" rx="183.65" ry="104.804"/>
<text text-anchor="middle" x="1150.74" y="-934.593" font-family="Times,serif" font-size="14.00">attScores1 (10)</text>
<text text-anchor="start" x="1028.75" y="-920.593" font-family="Times,serif" font-size="14.00">input = {Tensor[1000x4096]}</text>
<text text-anchor="start" x="1028.75" y="-906.593" font-family="Times,serif" font-size="14.00">module = nn.Sequential {</text>
<text text-anchor="start" x="1028.75" y="-892.593" font-family="Times,serif" font-size="14.00"> &#160;[input &#45;&gt; (1) &#45;&gt; (2) &#45;&gt; (3) &#45;&gt; (4) &#45;&gt; output]</text>
<text text-anchor="start" x="1028.75" y="-878.593" font-family="Times,serif" font-size="14.00"> &#160;(1): nn.ReLU</text>
<text text-anchor="start" x="1028.75" y="-864.593" font-family="Times,serif" font-size="14.00"> &#160;(2): nn.Dropout(0.500000)</text>
<text text-anchor="start" x="1028.75" y="-850.593" font-family="Times,serif" font-size="14.00"> &#160;(3): nn.Linear(4096 &#45;&gt; 42)</text>
<text text-anchor="start" x="1028.75" y="-836.593" font-family="Times,serif" font-size="14.00"> &#160;(4): nn.Sigmoid</text>
<text text-anchor="start" x="1028.75" y="-822.593" font-family="Times,serif" font-size="14.00">}</text>
<text text-anchor="middle" x="1150.74" y="-808.593" font-family="Times,serif" font-size="14.00">reverseMap = {}</text>
</a>
</g>
</g>
<!-- n10&#45;&gt;n7 -->
<g id="edge9" class="edge"><title>n10&#45;&gt;n7</title>
<path fill="none" stroke="black" d="M1171.49,-771.648C1173.28,-762.779 1175.05,-753.98 1176.74,-745.55"/>
<polygon fill="black" stroke="black" points="1180.23,-745.964 1178.77,-735.47 1173.37,-744.583 1180.23,-745.964"/>
</g>
<!-- n11 -->
<g id="node11" class="node"><title>n11</title>
<g id="a_node11"><a xlink:title="[create_C_mimick.lua]:18_">
<ellipse fill="none" stroke="black" cx="1598.74" cy="-875.793" rx="119.979" ry="45.011"/>
<text text-anchor="middle" x="1598.74" y="-892.593" font-family="Times,serif" font-size="14.00">question (11)</text>
<text text-anchor="start" x="1522.07" y="-878.593" font-family="Times,serif" font-size="14.00">input = {Tensor[1000x42]}</text>
<text text-anchor="start" x="1522.07" y="-864.593" font-family="Times,serif" font-size="14.00">module = nn.Identity</text>
<text text-anchor="middle" x="1598.74" y="-850.593" font-family="Times,serif" font-size="14.00">reverseMap = {}</text>
</a>
</g>
</g>
<!-- n11&#45;&gt;n7 -->
<g id="edge10" class="edge"><title>n11&#45;&gt;n7</title>
<path fill="none" stroke="black" d="M1525.14,-839.921C1461.51,-809.769 1368.71,-765.796 1296.85,-731.742"/>
<polygon fill="black" stroke="black" points="1298.28,-728.548 1287.74,-727.429 1295.28,-734.874 1298.28,-728.548"/>
</g>
<!-- n11&#45;&gt;n8 -->
<g id="edge12" class="edge"><title>n11&#45;&gt;n8</title>
<path fill="none" stroke="black" d="M1598.74,-830.33C1598.74,-805.149 1598.74,-773.206 1598.74,-745.331"/>
<polygon fill="black" stroke="black" points="1602.24,-745.266 1598.74,-735.266 1595.24,-745.266 1602.24,-745.266"/>
</g>
<!-- n12 -->
<g id="node12" class="node"><title>n12</title>
<g id="a_node12"><a xlink:title="[create_C_mimick.lua]:25_">
<ellipse fill="none" stroke="black" cx="2036.74" cy="-875.793" rx="183.65" ry="104.804"/>
<text text-anchor="middle" x="2036.74" y="-934.593" font-family="Times,serif" font-size="14.00">attScores2 (12)</text>
<text text-anchor="start" x="1914.75" y="-920.593" font-family="Times,serif" font-size="14.00">input = {Tensor[1000x4096]}</text>
<text text-anchor="start" x="1914.75" y="-906.593" font-family="Times,serif" font-size="14.00">module = nn.Sequential {</text>
<text text-anchor="start" x="1914.75" y="-892.593" font-family="Times,serif" font-size="14.00"> &#160;[input &#45;&gt; (1) &#45;&gt; (2) &#45;&gt; (3) &#45;&gt; (4) &#45;&gt; output]</text>
<text text-anchor="start" x="1914.75" y="-878.593" font-family="Times,serif" font-size="14.00"> &#160;(1): nn.ReLU</text>
<text text-anchor="start" x="1914.75" y="-864.593" font-family="Times,serif" font-size="14.00"> &#160;(2): nn.Dropout(0.500000)</text>
<text text-anchor="start" x="1914.75" y="-850.593" font-family="Times,serif" font-size="14.00"> &#160;(3): nn.Linear(4096 &#45;&gt; 42)</text>
<text text-anchor="start" x="1914.75" y="-836.593" font-family="Times,serif" font-size="14.00"> &#160;(4): nn.Sigmoid</text>
<text text-anchor="start" x="1914.75" y="-822.593" font-family="Times,serif" font-size="14.00">}</text>
<text text-anchor="middle" x="2036.74" y="-808.593" font-family="Times,serif" font-size="14.00">reverseMap = {}</text>
</a>
</g>
</g>
<!-- n12&#45;&gt;n8 -->
<g id="edge11" class="edge"><title>n12&#45;&gt;n8</title>
<path fill="none" stroke="black" d="M1892.41,-810.931C1833.38,-784.814 1766.14,-755.059 1710.9,-730.618"/>
<polygon fill="black" stroke="black" points="1712,-727.277 1701.44,-726.431 1709.17,-733.679 1712,-727.277"/>
</g>
<!-- n13 -->
<g id="node13" class="node"><title>n13</title>
<g id="a_node13"><a xlink:title="[[C]]:&#45;1_&#45;4">
<ellipse fill="none" stroke="black" cx="345.736" cy="-1188.21" rx="345.972" ry="45.011"/>
<text text-anchor="middle" x="345.736" y="-1205.01" font-family="Times,serif" font-size="14.00">Node13</text>
<text text-anchor="start" x="109.264" y="-1191.01" font-family="Times,serif" font-size="14.00">input = {{Tensor[1000x4096],Tensor[1000x4096],Tensor[1000x42],Tensor[1000]}}</text>
<text text-anchor="start" x="109.264" y="-1177.01" font-family="Times,serif" font-size="14.00">selectindex = 4</text>
<text text-anchor="middle" x="345.736" y="-1163.01" font-family="Times,serif" font-size="14.00">reverseMap = {}</text>
</a>
</g>
</g>
<!-- n13&#45;&gt;n9 -->
<g id="edge13" class="edge"><title>n13&#45;&gt;n9</title>
<path fill="none" stroke="black" d="M371.678,-1142.96C377.02,-1133.85 382.692,-1124.18 388.179,-1114.82"/>
<polygon fill="black" stroke="black" points="391.329,-1116.37 393.367,-1105.97 385.29,-1112.83 391.329,-1116.37"/>
</g>
<!-- n14 -->
<g id="node14" class="node"><title>n14</title>
<g id="a_node14"><a xlink:title="[create_C_mimick.lua]:16_">
<ellipse fill="none" stroke="black" cx="1131.74" cy="-1061.7" rx="129.778" ry="45.011"/>
<text text-anchor="middle" x="1131.74" y="-1078.5" font-family="Times,serif" font-size="14.00">image_feat1 (14)</text>
<text text-anchor="start" x="1048.07" y="-1064.5" font-family="Times,serif" font-size="14.00">input = {Tensor[1000x4096]}</text>
<text text-anchor="start" x="1048.07" y="-1050.5" font-family="Times,serif" font-size="14.00">module = nn.Identity</text>
<text text-anchor="middle" x="1131.74" y="-1036.5" font-family="Times,serif" font-size="14.00">reverseMap = {}</text>
</a>
</g>
</g>
<!-- n14&#45;&gt;n10 -->
<g id="edge14" class="edge"><title>n14&#45;&gt;n10</title>
<path fill="none" stroke="black" d="M1136.34,-1016.18C1137.16,-1008.23 1138.05,-999.618 1138.97,-990.719"/>
<polygon fill="black" stroke="black" points="1142.47,-990.873 1140.01,-980.566 1135.51,-990.154 1142.47,-990.873"/>
</g>
<!-- n15 -->
<g id="node15" class="node"><title>n15</title>
<g id="a_node15"><a xlink:title="[[C]]:&#45;1_&#45;3">
<ellipse fill="none" stroke="black" cx="1763.74" cy="-1188.21" rx="345.972" ry="45.011"/>
<text text-anchor="middle" x="1763.74" y="-1205.01" font-family="Times,serif" font-size="14.00">Node15</text>
<text text-anchor="start" x="1527.26" y="-1191.01" font-family="Times,serif" font-size="14.00">input = {{Tensor[1000x4096],Tensor[1000x4096],Tensor[1000x42],Tensor[1000]}}</text>
<text text-anchor="start" x="1527.26" y="-1177.01" font-family="Times,serif" font-size="14.00">selectindex = 3</text>
<text text-anchor="middle" x="1763.74" y="-1163.01" font-family="Times,serif" font-size="14.00">reverseMap = {}</text>
</a>
</g>
</g>
<!-- n15&#45;&gt;n11 -->
<g id="edge15" class="edge"><title>n15&#45;&gt;n11</title>
<path fill="none" stroke="black" d="M1740.1,-1142.73C1710.18,-1086.45 1658.71,-989.614 1626.82,-929.622"/>
<polygon fill="black" stroke="black" points="1629.85,-927.871 1622.07,-920.684 1623.67,-931.157 1629.85,-927.871"/>
</g>
<!-- n16 -->
<g id="node16" class="node"><title>n16</title>
<g id="a_node16"><a xlink:title="[create_C_mimick.lua]:17_">
<ellipse fill="none" stroke="black" cx="2384.74" cy="-1061.7" rx="129.778" ry="45.011"/>
<text text-anchor="middle" x="2384.74" y="-1078.5" font-family="Times,serif" font-size="14.00">image_feat2 (16)</text>
<text text-anchor="start" x="2301.07" y="-1064.5" font-family="Times,serif" font-size="14.00">input = {Tensor[1000x4096]}</text>
<text text-anchor="start" x="2301.07" y="-1050.5" font-family="Times,serif" font-size="14.00">module = nn.Identity</text>
<text text-anchor="middle" x="2384.74" y="-1036.5" font-family="Times,serif" font-size="14.00">reverseMap = {}</text>
</a>
</g>
</g>
<!-- n16&#45;&gt;n12 -->
<g id="edge16" class="edge"><title>n16&#45;&gt;n12</title>
<path fill="none" stroke="black" d="M2314.31,-1023.48C2275.6,-1003.02 2226.12,-976.879 2179.7,-952.345"/>
<polygon fill="black" stroke="black" points="2181.24,-949.201 2170.76,-947.623 2177.97,-955.39 2181.24,-949.201"/>
</g>
<!-- n17 -->
<g id="node17" class="node"><title>n17</title>
<g id="a_node17"><a xlink:title="[[C]]:&#45;1_ split at [...heksinha/torch/install/share/lua/5.1/nngraph/gmodule.lua]:96&#45;mnode">
<ellipse fill="none" stroke="black" cx="1408.74" cy="-1314.72" rx="345.972" ry="45.011"/>
<text text-anchor="middle" x="1408.74" y="-1331.52" font-family="Times,serif" font-size="14.00">Node17</text>
<text text-anchor="start" x="1172.26" y="-1317.52" font-family="Times,serif" font-size="14.00">input = {{Tensor[1000x4096],Tensor[1000x4096],Tensor[1000x42],Tensor[1000]}}</text>
<text text-anchor="start" x="1172.26" y="-1303.52" font-family="Times,serif" font-size="14.00">reverseMap = {}</text>
<text text-anchor="middle" x="1408.74" y="-1289.52" font-family="Times,serif" font-size="14.00">nSplitOutputs = 4</text>
</a>
</g>
</g>
<!-- n17&#45;&gt;n13 -->
<g id="edge17" class="edge"><title>n17&#45;&gt;n13</title>
<path fill="none" stroke="black" d="M1148.11,-1284.95C1014.08,-1269.97 848.113,-1251.14 699.736,-1233.46 667.827,-1229.66 634.311,-1225.59 601.151,-1221.5"/>
<polygon fill="black" stroke="black" points="601.227,-1217.98 590.874,-1220.23 600.37,-1224.93 601.227,-1217.98"/>
</g>
<!-- n17&#45;&gt;n15 -->
<g id="edge19" class="edge"><title>n17&#45;&gt;n15</title>
<path fill="none" stroke="black" d="M1527.44,-1272.09C1562.08,-1259.94 1600.08,-1246.61 1635.29,-1234.26"/>
<polygon fill="black" stroke="black" points="1636.87,-1237.42 1645.14,-1230.8 1634.55,-1230.81 1636.87,-1237.42"/>
</g>
<!-- n18 -->
<g id="node18" class="node"><title>n18</title>
<g id="a_node18"><a xlink:title="[[C]]:&#45;1_&#45;1">
<ellipse fill="none" stroke="black" cx="1054.74" cy="-1188.21" rx="345.972" ry="45.011"/>
<text text-anchor="middle" x="1054.74" y="-1205.01" font-family="Times,serif" font-size="14.00">Node18</text>
<text text-anchor="start" x="818.264" y="-1191.01" font-family="Times,serif" font-size="14.00">input = {{Tensor[1000x4096],Tensor[1000x4096],Tensor[1000x42],Tensor[1000]}}</text>
<text text-anchor="start" x="818.264" y="-1177.01" font-family="Times,serif" font-size="14.00">selectindex = 1</text>
<text text-anchor="middle" x="1054.74" y="-1163.01" font-family="Times,serif" font-size="14.00">reverseMap = {}</text>
</a>
</g>
</g>
<!-- n17&#45;&gt;n18 -->
<g id="edge22" class="edge"><title>n17&#45;&gt;n18</title>
<path fill="none" stroke="black" d="M1290.37,-1272.09C1255.83,-1259.94 1217.93,-1246.61 1182.82,-1234.26"/>
<polygon fill="black" stroke="black" points="1183.59,-1230.82 1172.99,-1230.8 1181.27,-1237.42 1183.59,-1230.82"/>
</g>
<!-- n19 -->
<g id="node19" class="node"><title>n19</title>
<g id="a_node19"><a xlink:title="[[C]]:&#45;1_&#45;2">
<ellipse fill="none" stroke="black" cx="2472.74" cy="-1188.21" rx="345.972" ry="45.011"/>
<text text-anchor="middle" x="2472.74" y="-1205.01" font-family="Times,serif" font-size="14.00">Node19</text>
<text text-anchor="start" x="2236.26" y="-1191.01" font-family="Times,serif" font-size="14.00">input = {{Tensor[1000x4096],Tensor[1000x4096],Tensor[1000x42],Tensor[1000]}}</text>
<text text-anchor="start" x="2236.26" y="-1177.01" font-family="Times,serif" font-size="14.00">selectindex = 2</text>
<text text-anchor="middle" x="2472.74" y="-1163.01" font-family="Times,serif" font-size="14.00">reverseMap = {}</text>
</a>
</g>
</g>
<!-- n17&#45;&gt;n19 -->
<g id="edge23" class="edge"><title>n17&#45;&gt;n19</title>
<path fill="none" stroke="black" d="M1669.73,-1284.96C1803.95,-1269.99 1970.15,-1251.15 2118.74,-1233.46 2150.65,-1229.67 2184.16,-1225.59 2217.32,-1221.5"/>
<polygon fill="black" stroke="black" points="2218.1,-1224.93 2227.6,-1220.24 2217.24,-1217.99 2218.1,-1224.93"/>
</g>
<!-- n18&#45;&gt;n14 -->
<g id="edge18" class="edge"><title>n18&#45;&gt;n14</title>
<path fill="none" stroke="black" d="M1082.1,-1142.96C1087.67,-1133.96 1093.58,-1124.4 1099.3,-1115.14"/>
<polygon fill="black" stroke="black" points="1102.44,-1116.73 1104.72,-1106.39 1096.48,-1113.05 1102.44,-1116.73"/>
</g>
<!-- n19&#45;&gt;n16 -->
<g id="edge20" class="edge"><title>n19&#45;&gt;n16</title>
<path fill="none" stroke="black" d="M2441.46,-1142.96C2434.89,-1133.66 2427.9,-1123.78 2421.16,-1114.24"/>
<polygon fill="black" stroke="black" points="2423.95,-1112.11 2415.32,-1105.97 2418.23,-1116.16 2423.95,-1112.11"/>
</g>
<!-- n20 -->
<g id="node20" class="node"><title>n20</title>
<g id="a_node20"><a xlink:title="[[C]]:&#45;1_">
<ellipse fill="none" stroke="black" cx="1408.74" cy="-1431.33" rx="336.466" ry="35.2113"/>
<text text-anchor="middle" x="1408.74" y="-1441.13" font-family="Times,serif" font-size="14.00">Node20</text>
<text text-anchor="start" x="1178.98" y="-1427.13" font-family="Times,serif" font-size="14.00">input = {Tensor[1000x4096],Tensor[1000x4096],Tensor[1000x42],Tensor[1000]}</text>
<text text-anchor="middle" x="1408.74" y="-1413.13" font-family="Times,serif" font-size="14.00">reverseMap = {}</text>
</a>
</g>
</g>
<!-- n20&#45;&gt;n17 -->
<g id="edge21" class="edge"><title>n20&#45;&gt;n17</title>
<path fill="none" stroke="black" d="M1408.74,-1395.94C1408.74,-1387.89 1408.74,-1379.11 1408.74,-1370.41"/>
<polygon fill="black" stroke="black" points="1412.24,-1370.28 1408.74,-1360.28 1405.24,-1370.28 1412.24,-1370.28"/>
</g>
</g>
</svg>
