<?xml version="1.0" encoding="UTF-8" standalone="no"?>
<!DOCTYPE svg PUBLIC "-//W3C//DTD SVG 1.1//EN"
 "http://www.w3.org/Graphics/SVG/1.1/DTD/svg11.dtd">
<!-- Generated by graphviz version 2.38.0 (20140413.2041)
 -->
<!-- Title: G Pages: 1 -->
<svg width="1021pt" height="753pt"
 viewBox="0.00 0.00 1020.74 753.06" xmlns="http://www.w3.org/2000/svg" xmlns:xlink="http://www.w3.org/1999/xlink">
<g id="graph0" class="graph" transform="scale(1 1) rotate(0) translate(4 749.058)">
<title>G</title>
<polygon fill="white" stroke="none" points="-4,4 -4,-749.058 1016.74,-749.058 1016.74,4 -4,4"/>
<text text-anchor="middle" x="506.371" y="-729.858" font-family="Times,serif" font-size="14.00">nngraph_1in_1out</text>
<!-- n1 -->
<g id="node1" class="node"><title>n1</title>
<g id="a_node1"><a xlink:title="[[string &quot;require &#39;nngraph&#39;;...&quot;]]:17_">
<ellipse fill="red" stroke="black" cx="502.589" cy="-161.865" rx="336.466" ry="55.3091"/>
<text text-anchor="middle" x="502.589" y="-185.665" font-family="Times,serif" font-size="14.00">scores (1)</text>
<text text-anchor="start" x="272.836" y="-171.665" font-family="Times,serif" font-size="14.00">input = {Tensor[1000x4096],Tensor[1000x4096],Tensor[1000x42],Tensor[1000]}</text>
<text text-anchor="start" x="272.836" y="-157.665" font-family="Times,serif" font-size="14.00">module = nn.gModule</text>
<text text-anchor="start" x="272.836" y="-143.665" font-family="Times,serif" font-size="14.00">reverseMap = {}</text>
<text text-anchor="middle" x="502.589" y="-129.665" font-family="Times,serif" font-size="14.00">mapindex = {Node3,Node4,Node5,Node6}</text>
</a>
</g>
</g>
<!-- n2 -->
<g id="node2" class="node"><title>n2</title>
<g id="a_node2"><a xlink:title="[[C]]:&#45;1_">
<ellipse fill="none" stroke="black" cx="502.589" cy="-35.3553" rx="78.145" ry="35.2113"/>
<text text-anchor="middle" x="502.589" y="-45.1553" font-family="Times,serif" font-size="14.00">Node2</text>
<text text-anchor="start" x="455.383" y="-31.1553" font-family="Times,serif" font-size="14.00">input = {}</text>
<text text-anchor="middle" x="502.589" y="-17.1553" font-family="Times,serif" font-size="14.00">reverseMap = {}</text>
</a>
</g>
</g>
<!-- n1&#45;&gt;n2 -->
<g id="edge1" class="edge"><title>n1&#45;&gt;n2</title>
<path fill="none" stroke="black" d="M502.589,-106.615C502.589,-98.1371 502.589,-89.4574 502.589,-81.2194"/>
<polygon fill="black" stroke="black" points="506.089,-81.0692 502.589,-71.0692 499.089,-81.0693 506.089,-81.0692"/>
</g>
<!-- n3 -->
<g id="node3" class="node"><title>n3</title>
<g id="a_node3"><a xlink:title="[[string &quot;require &#39;nngraph&#39;;...&quot;]]:9_">
<ellipse fill="none" stroke="black" cx="134.589" cy="-308.174" rx="134.677" ry="45.011"/>
<text text-anchor="middle" x="134.589" y="-324.974" font-family="Times,serif" font-size="14.00">image_feat1 (3)</text>
<text text-anchor="start" x="47.4201" y="-310.974" font-family="Times,serif" font-size="14.00">input = {Tensor[1000x12330]}</text>
<text text-anchor="start" x="47.4201" y="-296.974" font-family="Times,serif" font-size="14.00">module = nn.Narrow</text>
<text text-anchor="middle" x="134.589" y="-282.974" font-family="Times,serif" font-size="14.00">reverseMap = {}</text>
</a>
</g>
</g>
<!-- n3&#45;&gt;n1 -->
<g id="edge2" class="edge"><title>n3&#45;&gt;n1</title>
<path fill="none" stroke="black" d="M220.868,-273.34C263.977,-256.435 317.167,-235.577 365.677,-216.554"/>
<polygon fill="black" stroke="black" points="366.961,-219.81 374.993,-212.901 364.406,-213.293 366.961,-219.81"/>
</g>
<!-- n4 -->
<g id="node4" class="node"><title>n4</title>
<g id="a_node4"><a xlink:title="[[string &quot;require &#39;nngraph&#39;;...&quot;]]:10_">
<ellipse fill="none" stroke="black" cx="421.589" cy="-308.174" rx="134.677" ry="45.011"/>
<text text-anchor="middle" x="421.589" y="-324.974" font-family="Times,serif" font-size="14.00">image_feat2 (4)</text>
<text text-anchor="start" x="334.42" y="-310.974" font-family="Times,serif" font-size="14.00">input = {Tensor[1000x12330]}</text>
<text text-anchor="start" x="334.42" y="-296.974" font-family="Times,serif" font-size="14.00">module = nn.Narrow</text>
<text text-anchor="middle" x="421.589" y="-282.974" font-family="Times,serif" font-size="14.00">reverseMap = {}</text>
</a>
</g>
</g>
<!-- n4&#45;&gt;n1 -->
<g id="edge3" class="edge"><title>n4&#45;&gt;n1</title>
<path fill="none" stroke="black" d="M446.111,-263.485C452.807,-251.554 460.198,-238.388 467.364,-225.621"/>
<polygon fill="black" stroke="black" points="470.436,-227.299 472.278,-216.866 464.331,-223.873 470.436,-227.299"/>
</g>
<!-- n5 -->
<g id="node5" class="node"><title>n5</title>
<g id="a_node5"><a xlink:title="[[string &quot;require &#39;nngraph&#39;;...&quot;]]:12_">
<ellipse fill="none" stroke="black" cx="584.589" cy="-444.583" rx="134.677" ry="45.011"/>
<text text-anchor="middle" x="584.589" y="-461.383" font-family="Times,serif" font-size="14.00">question (5)</text>
<text text-anchor="start" x="497.42" y="-447.383" font-family="Times,serif" font-size="14.00">input = {Tensor[1000x12330]}</text>
<text text-anchor="start" x="497.42" y="-433.383" font-family="Times,serif" font-size="14.00">module = nn.Narrow</text>
<text text-anchor="middle" x="584.589" y="-419.383" font-family="Times,serif" font-size="14.00">reverseMap = {}</text>
</a>
</g>
</g>
<!-- n5&#45;&gt;n1 -->
<g id="edge4" class="edge"><title>n5&#45;&gt;n1</title>
<path fill="none" stroke="black" d="M586.415,-399.028C586.59,-359.474 583.253,-300.723 565.589,-253.019 562.107,-243.618 557.404,-234.282 552.127,-225.378"/>
<polygon fill="black" stroke="black" points="554.939,-223.272 546.683,-216.633 548.997,-226.972 554.939,-223.272"/>
</g>
<!-- n6 -->
<g id="node6" class="node"><title>n6</title>
<g id="a_node6"><a xlink:title="[[string &quot;require &#39;nngraph&#39;;...&quot;]]:16_">
<ellipse fill="none" stroke="black" cx="812.589" cy="-308.174" rx="200.307" ry="55.3091"/>
<text text-anchor="middle" x="812.589" y="-331.974" font-family="Times,serif" font-size="14.00">confidence (6)</text>
<text text-anchor="start" x="679.059" y="-317.974" font-family="Times,serif" font-size="14.00">input = {Tensor[1000x42],Tensor[1000x4096]}</text>
<text text-anchor="start" x="679.059" y="-303.974" font-family="Times,serif" font-size="14.00">module = nn.gModule</text>
<text text-anchor="start" x="679.059" y="-289.974" font-family="Times,serif" font-size="14.00">reverseMap = {}</text>
<text text-anchor="middle" x="812.589" y="-275.974" font-family="Times,serif" font-size="14.00">mapindex = {Node5,Node8}</text>
</a>
</g>
</g>
<!-- n5&#45;&gt;n6 -->
<g id="edge9" class="edge"><title>n5&#45;&gt;n6</title>
<path fill="none" stroke="black" d="M650.23,-404.886C672.044,-392.027 696.757,-377.458 720.204,-363.635"/>
<polygon fill="black" stroke="black" points="722.283,-366.473 729.12,-358.379 718.728,-360.443 722.283,-366.473"/>
</g>
<!-- n6&#45;&gt;n1 -->
<g id="edge5" class="edge"><title>n6&#45;&gt;n1</title>
<path fill="none" stroke="black" d="M711.94,-260.321C683.181,-246.933 651.564,-232.215 621.807,-218.363"/>
<polygon fill="black" stroke="black" points="623.18,-215.141 612.637,-214.094 620.226,-221.487 623.18,-215.141"/>
</g>
<!-- n7 -->
<g id="node7" class="node"><title>n7</title>
<g id="a_node7"><a xlink:title="[[string &quot;require &#39;nngraph&#39;;...&quot;]]:7_">
<ellipse fill="none" stroke="black" cx="502.589" cy="-571.092" rx="134.677" ry="45.011"/>
<text text-anchor="middle" x="502.589" y="-587.892" font-family="Times,serif" font-size="14.00">input (7)</text>
<text text-anchor="start" x="415.42" y="-573.892" font-family="Times,serif" font-size="14.00">input = {Tensor[1000x12330]}</text>
<text text-anchor="start" x="415.42" y="-559.892" font-family="Times,serif" font-size="14.00">module = nn.Identity</text>
<text text-anchor="middle" x="502.589" y="-545.892" font-family="Times,serif" font-size="14.00">reverseMap = {}</text>
</a>
</g>
</g>
<!-- n7&#45;&gt;n3 -->
<g id="edge6" class="edge"><title>n7&#45;&gt;n3</title>
<path fill="none" stroke="black" d="M445.895,-529.896C379.442,-482.78 269.537,-404.855 199.664,-355.313"/>
<polygon fill="black" stroke="black" points="201.528,-352.345 191.346,-349.416 197.48,-358.055 201.528,-352.345"/>
</g>
<!-- n7&#45;&gt;n4 -->
<g id="edge7" class="edge"><title>n7&#45;&gt;n4</title>
<path fill="none" stroke="black" d="M462.721,-527.414C454.051,-515.97 445.895,-503.075 440.589,-489.838 424.444,-449.567 420.164,-400.407 419.66,-363.541"/>
<polygon fill="black" stroke="black" points="423.159,-363.469 419.611,-353.486 416.159,-363.503 423.159,-363.469"/>
</g>
<!-- n7&#45;&gt;n5 -->
<g id="edge8" class="edge"><title>n7&#45;&gt;n5</title>
<path fill="none" stroke="black" d="M531.268,-526.545C537.484,-517.108 544.115,-507.038 550.515,-497.32"/>
<polygon fill="black" stroke="black" points="553.486,-499.172 556.064,-488.895 547.64,-495.322 553.486,-499.172"/>
</g>
<!-- n8 -->
<g id="node8" class="node"><title>n8</title>
<g id="a_node8"><a xlink:title="[[string &quot;require &#39;nngraph&#39;;...&quot;]]:11_">
<ellipse fill="none" stroke="black" cx="871.589" cy="-444.583" rx="134.677" ry="45.011"/>
<text text-anchor="middle" x="871.589" y="-461.383" font-family="Times,serif" font-size="14.00">image_feat3 (8)</text>
<text text-anchor="start" x="784.42" y="-447.383" font-family="Times,serif" font-size="14.00">input = {Tensor[1000x12330]}</text>
<text text-anchor="start" x="784.42" y="-433.383" font-family="Times,serif" font-size="14.00">module = nn.Narrow</text>
<text text-anchor="middle" x="871.589" y="-419.383" font-family="Times,serif" font-size="14.00">reverseMap = {}</text>
</a>
</g>
</g>
<!-- n7&#45;&gt;n8 -->
<g id="edge12" class="edge"><title>n7&#45;&gt;n8</title>
<path fill="none" stroke="black" d="M596.18,-538.512C648.65,-520.808 714.199,-498.69 768.183,-480.474"/>
<polygon fill="black" stroke="black" points="769.421,-483.751 777.777,-477.237 767.182,-477.118 769.421,-483.751"/>
</g>
<!-- n8&#45;&gt;n6 -->
<g id="edge10" class="edge"><title>n8&#45;&gt;n6</title>
<path fill="none" stroke="black" d="M852.27,-399.572C848.438,-390.844 844.346,-381.521 840.299,-372.301"/>
<polygon fill="black" stroke="black" points="843.502,-370.891 836.278,-363.141 837.093,-373.705 843.502,-370.891"/>
</g>
<!-- n9 -->
<g id="node9" class="node"><title>n9</title>
<g id="a_node9"><a xlink:title="[[C]]:&#45;1_">
<ellipse fill="none" stroke="black" cx="502.589" cy="-687.703" rx="134.677" ry="35.2113"/>
<text text-anchor="middle" x="502.589" y="-697.503" font-family="Times,serif" font-size="14.00">Node9</text>
<text text-anchor="start" x="415.42" y="-683.503" font-family="Times,serif" font-size="14.00">input = {Tensor[1000x12330]}</text>
<text text-anchor="middle" x="502.589" y="-669.503" font-family="Times,serif" font-size="14.00">reverseMap = {}</text>
</a>
</g>
</g>
<!-- n9&#45;&gt;n7 -->
<g id="edge11" class="edge"><title>n9&#45;&gt;n7</title>
<path fill="none" stroke="black" d="M502.589,-652.316C502.589,-644.259 502.589,-635.479 502.589,-626.78"/>
<polygon fill="black" stroke="black" points="506.089,-626.652 502.589,-616.652 499.089,-626.652 506.089,-626.652"/>
</g>
</g>
</svg>
