<?xml version="1.0" encoding="UTF-8" standalone="no"?>
<!DOCTYPE svg PUBLIC "-//W3C//DTD SVG 1.1//EN"
 "http://www.w3.org/Graphics/SVG/1.1/DTD/svg11.dtd">
<!-- Generated by graphviz version 2.38.0 (20140413.2041)
 -->
<!-- Title: G Pages: 1 -->
<svg width="2114pt" height="984pt"
 viewBox="0.00 0.00 2114.28 984.08" xmlns="http://www.w3.org/2000/svg" xmlns:xlink="http://www.w3.org/1999/xlink">
<g id="graph0" class="graph" transform="scale(1 1) rotate(0) translate(4 980.077)">
<title>G</title>
<polygon fill="white" stroke="none" points="-4,4 -4,-980.077 2110.28,-980.077 2110.28,4 -4,4"/>
<!-- n1 -->
<g id="node1" class="node"><title>n1</title>
<g id="a_node1"><a xlink:title="[torchModel_BC_viz.lua]:50_">
<ellipse fill="none" stroke="black" cx="1043.64" cy="-161.865" rx="227.177" ry="55.3091"/>
<text text-anchor="middle" x="1043.64" y="-185.665" font-family="Times,serif" font-size="14.00">scores (1)</text>
<text text-anchor="start" x="890.888" y="-171.665" font-family="Times,serif" font-size="14.00">input = {Tensor[20],Tensor[20],Tensor[10],Tensor[1]}</text>
<text text-anchor="start" x="890.888" y="-157.665" font-family="Times,serif" font-size="14.00">module = nn.gModule</text>
<text text-anchor="start" x="890.888" y="-143.665" font-family="Times,serif" font-size="14.00">reverseMap = {}</text>
<text text-anchor="middle" x="1043.64" y="-129.665" font-family="Times,serif" font-size="14.00">mapindex = {Node3,Node4,Node5,Node6}</text>
</a>
</g>
</g>
<!-- n2 -->
<g id="node2" class="node"><title>n2</title>
<g id="a_node2"><a xlink:title="[[C]]:&#45;1_">
<ellipse fill="none" stroke="black" cx="1043.64" cy="-35.3553" rx="140.22" ry="35.2113"/>
<text text-anchor="middle" x="1043.64" y="-45.1553" font-family="Times,serif" font-size="14.00">Node2</text>
<text text-anchor="start" x="952.391" y="-31.1553" font-family="Times,serif" font-size="14.00">input = {{Tensor[1],Tensor[1]}}</text>
<text text-anchor="middle" x="1043.64" y="-17.1553" font-family="Times,serif" font-size="14.00">reverseMap = {}</text>
</a>
</g>
</g>
<!-- n1&#45;&gt;n2 -->
<g id="edge1" class="edge"><title>n1&#45;&gt;n2</title>
<path fill="none" stroke="black" d="M1043.64,-106.615C1043.64,-98.1371 1043.64,-89.4574 1043.64,-81.2194"/>
<polygon fill="black" stroke="black" points="1047.14,-81.0692 1043.64,-71.0692 1040.14,-81.0693 1047.14,-81.0692"/>
</g>
<!-- n3 -->
<g id="node3" class="node"><title>n3</title>
<g id="a_node3"><a xlink:title="[torchModel_BC_viz.lua]:45_">
<ellipse fill="none" stroke="black" cx="1196.64" cy="-308.174" rx="134.834" ry="45.011"/>
<text text-anchor="middle" x="1196.64" y="-324.974" font-family="Times,serif" font-size="14.00">image_feat1 (3)</text>
<text text-anchor="start" x="1109.24" y="-310.974" font-family="Times,serif" font-size="14.00">input = {Tensor[100]}</text>
<text text-anchor="start" x="1109.24" y="-296.974" font-family="Times,serif" font-size="14.00">module = nn.Linear(100 &#45;&gt; 20)</text>
<text text-anchor="middle" x="1196.64" y="-282.974" font-family="Times,serif" font-size="14.00">reverseMap = {}</text>
</a>
</g>
</g>
<!-- n3&#45;&gt;n1 -->
<g id="edge2" class="edge"><title>n3&#45;&gt;n1</title>
<path fill="none" stroke="black" d="M1151.98,-265.046C1137.88,-251.748 1122.02,-236.794 1106.88,-222.514"/>
<polygon fill="black" stroke="black" points="1109.19,-219.884 1099.52,-215.568 1104.39,-224.976 1109.19,-219.884"/>
</g>
<!-- n4 -->
<g id="node4" class="node"><title>n4</title>
<g id="a_node4"><a xlink:title="[torchModel_BC_viz.lua]:46_">
<ellipse fill="none" stroke="black" cx="1520.64" cy="-308.174" rx="134.834" ry="45.011"/>
<text text-anchor="middle" x="1520.64" y="-324.974" font-family="Times,serif" font-size="14.00">image_feat2 (4)</text>
<text text-anchor="start" x="1433.24" y="-310.974" font-family="Times,serif" font-size="14.00">input = {Tensor[100]}</text>
<text text-anchor="start" x="1433.24" y="-296.974" font-family="Times,serif" font-size="14.00">module = nn.Linear(100 &#45;&gt; 20)</text>
<text text-anchor="middle" x="1520.64" y="-282.974" font-family="Times,serif" font-size="14.00">reverseMap = {}</text>
</a>
</g>
</g>
<!-- n4&#45;&gt;n1 -->
<g id="edge3" class="edge"><title>n4&#45;&gt;n1</title>
<path fill="none" stroke="black" d="M1421.81,-277.273C1355.99,-257.363 1268.28,-230.825 1193.89,-208.321"/>
<polygon fill="black" stroke="black" points="1194.54,-204.861 1183.96,-205.315 1192.51,-211.561 1194.54,-204.861"/>
</g>
<!-- n5 -->
<g id="node5" class="node"><title>n5</title>
<g id="a_node5"><a xlink:title="[torchModel_BC_viz.lua]:43_">
<ellipse fill="none" stroke="black" cx="643.64" cy="-444.583" rx="94.9811" ry="45.011"/>
<text text-anchor="middle" x="643.64" y="-461.383" font-family="Times,serif" font-size="14.00">question (5)</text>
<text text-anchor="start" x="584.472" y="-447.383" font-family="Times,serif" font-size="14.00">input = {Tensor[10]}</text>
<text text-anchor="start" x="584.472" y="-433.383" font-family="Times,serif" font-size="14.00">module = nn.Identity</text>
<text text-anchor="middle" x="643.64" y="-419.383" font-family="Times,serif" font-size="14.00">reverseMap = {}</text>
</a>
</g>
</g>
<!-- n5&#45;&gt;n1 -->
<g id="edge4" class="edge"><title>n5&#45;&gt;n1</title>
<path fill="none" stroke="black" d="M655.328,-399.329C669.013,-355.977 695.845,-291.044 741.64,-253.019 772.008,-227.805 809.241,-209.642 847.059,-196.559"/>
<polygon fill="black" stroke="black" points="848.308,-199.831 856.682,-193.341 846.088,-193.193 848.308,-199.831"/>
</g>
<!-- n6 -->
<g id="node6" class="node"><title>n6</title>
<g id="a_node6"><a xlink:title="[torchModel_BC_viz.lua]:49_">
<ellipse fill="none" stroke="black" cx="891.64" cy="-308.174" rx="140.513" ry="55.3091"/>
<text text-anchor="middle" x="891.64" y="-331.974" font-family="Times,serif" font-size="14.00">confidence (6)</text>
<text text-anchor="start" x="800.111" y="-317.974" font-family="Times,serif" font-size="14.00">input = {Tensor[10],Tensor[20]}</text>
<text text-anchor="start" x="800.111" y="-303.974" font-family="Times,serif" font-size="14.00">module = nn.gModule</text>
<text text-anchor="start" x="800.111" y="-289.974" font-family="Times,serif" font-size="14.00">reverseMap = {}</text>
<text text-anchor="middle" x="891.64" y="-275.974" font-family="Times,serif" font-size="14.00">mapindex = {Node5,Node10}</text>
</a>
</g>
</g>
<!-- n5&#45;&gt;n6 -->
<g id="edge9" class="edge"><title>n5&#45;&gt;n6</title>
<path fill="none" stroke="black" d="M705.582,-410.012C734.563,-394.305 769.639,-375.295 801.488,-358.034"/>
<polygon fill="black" stroke="black" points="803.254,-361.058 810.378,-353.216 799.919,-354.903 803.254,-361.058"/>
</g>
<!-- n6&#45;&gt;n1 -->
<g id="edge5" class="edge"><title>n6&#45;&gt;n1</title>
<path fill="none" stroke="black" d="M944.803,-256.701C956.43,-245.663 968.843,-233.878 980.807,-222.519"/>
<polygon fill="black" stroke="black" points="983.345,-224.936 988.187,-215.512 978.525,-219.859 983.345,-224.936"/>
</g>
<!-- n7 -->
<g id="node7" class="node"><title>n7</title>
<g id="a_node7"><a xlink:title="[torchModel_BC_viz.lua]:40_">
<ellipse fill="none" stroke="black" cx="1218.64" cy="-444.583" rx="99.8806" ry="45.011"/>
<text text-anchor="middle" x="1218.64" y="-461.383" font-family="Times,serif" font-size="14.00">image1 (7)</text>
<text text-anchor="start" x="1155.97" y="-447.383" font-family="Times,serif" font-size="14.00">input = {Tensor[100]}</text>
<text text-anchor="start" x="1155.97" y="-433.383" font-family="Times,serif" font-size="14.00">module = nn.Identity</text>
<text text-anchor="middle" x="1218.64" y="-419.383" font-family="Times,serif" font-size="14.00">reverseMap = {}</text>
</a>
</g>
</g>
<!-- n7&#45;&gt;n3 -->
<g id="edge6" class="edge"><title>n7&#45;&gt;n3</title>
<path fill="none" stroke="black" d="M1211.38,-399.2C1209.52,-387.845 1207.5,-375.503 1205.57,-363.703"/>
<polygon fill="black" stroke="black" points="1208.97,-362.813 1203.9,-353.51 1202.06,-363.944 1208.97,-362.813"/>
</g>
<!-- n8 -->
<g id="node8" class="node"><title>n8</title>
<g id="a_node8"><a xlink:title="[torchModel_BC_viz.lua]:41_">
<ellipse fill="none" stroke="black" cx="1813.64" cy="-571.092" rx="99.8806" ry="45.011"/>
<text text-anchor="middle" x="1813.64" y="-587.892" font-family="Times,serif" font-size="14.00">image2 (8)</text>
<text text-anchor="start" x="1750.97" y="-573.892" font-family="Times,serif" font-size="14.00">input = {Tensor[100]}</text>
<text text-anchor="start" x="1750.97" y="-559.892" font-family="Times,serif" font-size="14.00">module = nn.Identity</text>
<text text-anchor="middle" x="1813.64" y="-545.892" font-family="Times,serif" font-size="14.00">reverseMap = {}</text>
</a>
</g>
</g>
<!-- n8&#45;&gt;n4 -->
<g id="edge7" class="edge"><title>n8&#45;&gt;n4</title>
<path fill="none" stroke="black" d="M1769.14,-530.465C1717.15,-484.171 1631.15,-407.585 1575.19,-357.753"/>
<polygon fill="black" stroke="black" points="1577.3,-354.941 1567.5,-350.905 1572.64,-360.169 1577.3,-354.941"/>
</g>
<!-- n9 -->
<g id="node9" class="node"><title>n9</title>
<g id="a_node9"><a xlink:title="[[C]]:&#45;1_&#45;4">
<ellipse fill="none" stroke="black" cx="256.64" cy="-697.602" rx="256.781" ry="45.011"/>
<text text-anchor="middle" x="256.64" y="-714.402" font-family="Times,serif" font-size="14.00">Node9</text>
<text text-anchor="start" x="83.1682" y="-700.402" font-family="Times,serif" font-size="14.00">input = {{Tensor[100],Tensor[100],Tensor[100],Tensor[10]}}</text>
<text text-anchor="start" x="83.1682" y="-686.402" font-family="Times,serif" font-size="14.00">selectindex = 4</text>
<text text-anchor="middle" x="256.64" y="-672.402" font-family="Times,serif" font-size="14.00">reverseMap = {}</text>
</a>
</g>
</g>
<!-- n9&#45;&gt;n5 -->
<g id="edge8" class="edge"><title>n9&#45;&gt;n5</title>
<path fill="none" stroke="black" d="M322.728,-653.736C394.61,-607.111 508.719,-533.097 579.732,-487.036"/>
<polygon fill="black" stroke="black" points="581.688,-489.939 588.173,-481.561 577.879,-484.066 581.688,-489.939"/>
</g>
<!-- n10 -->
<g id="node10" class="node"><title>n10</title>
<g id="a_node10"><a xlink:title="[torchModel_BC_viz.lua]:47_">
<ellipse fill="none" stroke="black" cx="891.64" cy="-444.583" rx="134.834" ry="45.011"/>
<text text-anchor="middle" x="891.64" y="-461.383" font-family="Times,serif" font-size="14.00">image_feat3 (10)</text>
<text text-anchor="start" x="804.24" y="-447.383" font-family="Times,serif" font-size="14.00">input = {Tensor[100]}</text>
<text text-anchor="start" x="804.24" y="-433.383" font-family="Times,serif" font-size="14.00">module = nn.Linear(100 &#45;&gt; 20)</text>
<text text-anchor="middle" x="891.64" y="-419.383" font-family="Times,serif" font-size="14.00">reverseMap = {}</text>
</a>
</g>
</g>
<!-- n10&#45;&gt;n6 -->
<g id="edge10" class="edge"><title>n10&#45;&gt;n6</title>
<path fill="none" stroke="black" d="M891.64,-399.2C891.64,-390.956 891.64,-382.192 891.64,-373.493"/>
<polygon fill="black" stroke="black" points="895.14,-373.345 891.64,-363.345 888.14,-373.345 895.14,-373.345"/>
</g>
<!-- n11 -->
<g id="node11" class="node"><title>n11</title>
<g id="a_node11"><a xlink:title="[[C]]:&#45;1_&#45;1">
<ellipse fill="none" stroke="black" cx="1318.64" cy="-697.602" rx="256.781" ry="45.011"/>
<text text-anchor="middle" x="1318.64" y="-714.402" font-family="Times,serif" font-size="14.00">Node11</text>
<text text-anchor="start" x="1145.17" y="-700.402" font-family="Times,serif" font-size="14.00">input = {{Tensor[100],Tensor[100],Tensor[100],Tensor[10]}}</text>
<text text-anchor="start" x="1145.17" y="-686.402" font-family="Times,serif" font-size="14.00">selectindex = 1</text>
<text text-anchor="middle" x="1318.64" y="-672.402" font-family="Times,serif" font-size="14.00">reverseMap = {}</text>
</a>
</g>
</g>
<!-- n11&#45;&gt;n7 -->
<g id="edge11" class="edge"><title>n11&#45;&gt;n7</title>
<path fill="none" stroke="black" d="M1300.99,-652.303C1283.93,-609.466 1258.05,-544.511 1239.87,-498.871"/>
<polygon fill="black" stroke="black" points="1243.06,-497.434 1236.11,-489.439 1236.56,-500.025 1243.06,-497.434"/>
</g>
<!-- n12 -->
<g id="node12" class="node"><title>n12</title>
<g id="a_node12"><a xlink:title="[[C]]:&#45;1_&#45;2">
<ellipse fill="none" stroke="black" cx="1849.64" cy="-697.602" rx="256.781" ry="45.011"/>
<text text-anchor="middle" x="1849.64" y="-714.402" font-family="Times,serif" font-size="14.00">Node12</text>
<text text-anchor="start" x="1676.17" y="-700.402" font-family="Times,serif" font-size="14.00">input = {{Tensor[100],Tensor[100],Tensor[100],Tensor[10]}}</text>
<text text-anchor="start" x="1676.17" y="-686.402" font-family="Times,serif" font-size="14.00">selectindex = 2</text>
<text text-anchor="middle" x="1849.64" y="-672.402" font-family="Times,serif" font-size="14.00">reverseMap = {}</text>
</a>
</g>
</g>
<!-- n12&#45;&gt;n8 -->
<g id="edge12" class="edge"><title>n12&#45;&gt;n8</title>
<path fill="none" stroke="black" d="M1836.85,-652.354C1834.38,-643.822 1831.77,-634.797 1829.23,-625.998"/>
<polygon fill="black" stroke="black" points="1832.53,-624.832 1826.39,-616.198 1825.81,-626.777 1832.53,-624.832"/>
</g>
<!-- n13 -->
<g id="node13" class="node"><title>n13</title>
<g id="a_node13"><a xlink:title="[[C]]:&#45;1_ split at [...s/ashish/torch/install/share/lua/5.1/nngraph/gmodule.lua]:96&#45;mnode">
<ellipse fill="none" stroke="black" cx="1052.64" cy="-824.112" rx="256.781" ry="45.011"/>
<text text-anchor="middle" x="1052.64" y="-840.912" font-family="Times,serif" font-size="14.00">Node13</text>
<text text-anchor="start" x="879.168" y="-826.912" font-family="Times,serif" font-size="14.00">input = {{Tensor[100],Tensor[100],Tensor[100],Tensor[10]}}</text>
<text text-anchor="start" x="879.168" y="-812.912" font-family="Times,serif" font-size="14.00">reverseMap = {}</text>
<text text-anchor="middle" x="1052.64" y="-798.912" font-family="Times,serif" font-size="14.00">nSplitOutputs = 4</text>
</a>
</g>
</g>
<!-- n13&#45;&gt;n9 -->
<g id="edge13" class="edge"><title>n13&#45;&gt;n9</title>
<path fill="none" stroke="black" d="M858.332,-794.48C757.774,-779.477 633.054,-760.578 521.64,-742.857 498.158,-739.122 473.52,-735.12 449.118,-731.104"/>
<polygon fill="black" stroke="black" points="449.484,-727.618 439.048,-729.445 448.346,-734.525 449.484,-727.618"/>
</g>
<!-- n13&#45;&gt;n11 -->
<g id="edge15" class="edge"><title>n13&#45;&gt;n11</title>
<path fill="none" stroke="black" d="M1141.58,-781.479C1166.98,-769.59 1194.8,-756.57 1220.7,-744.444"/>
<polygon fill="black" stroke="black" points="1222.21,-747.605 1229.78,-740.196 1219.24,-741.265 1222.21,-747.605"/>
</g>
<!-- n13&#45;&gt;n12 -->
<g id="edge16" class="edge"><title>n13&#45;&gt;n12</title>
<path fill="none" stroke="black" d="M1247,-794.541C1347.81,-779.534 1472.9,-760.614 1584.64,-742.857 1608.12,-739.125 1632.76,-735.125 1657.16,-731.111"/>
<polygon fill="black" stroke="black" points="1657.94,-734.531 1667.23,-729.452 1656.8,-727.624 1657.94,-734.531"/>
</g>
<!-- n16 -->
<g id="node16" class="node"><title>n16</title>
<g id="a_node16"><a xlink:title="[[C]]:&#45;1_&#45;3">
<ellipse fill="none" stroke="black" cx="787.64" cy="-697.602" rx="256.781" ry="45.011"/>
<text text-anchor="middle" x="787.64" y="-714.402" font-family="Times,serif" font-size="14.00">Node16</text>
<text text-anchor="start" x="614.168" y="-700.402" font-family="Times,serif" font-size="14.00">input = {{Tensor[100],Tensor[100],Tensor[100],Tensor[10]}}</text>
<text text-anchor="start" x="614.168" y="-686.402" font-family="Times,serif" font-size="14.00">selectindex = 3</text>
<text text-anchor="middle" x="787.64" y="-672.402" font-family="Times,serif" font-size="14.00">reverseMap = {}</text>
</a>
</g>
</g>
<!-- n13&#45;&gt;n16 -->
<g id="edge19" class="edge"><title>n13&#45;&gt;n16</title>
<path fill="none" stroke="black" d="M964.031,-781.479C938.838,-769.642 911.258,-756.683 885.547,-744.603"/>
<polygon fill="black" stroke="black" points="886.706,-741.281 876.166,-740.196 883.729,-747.616 886.706,-741.281"/>
</g>
<!-- n14 -->
<g id="node14" class="node"><title>n14</title>
<g id="a_node14"><a xlink:title="[torchModel_BC_viz.lua]:42_">
<ellipse fill="none" stroke="black" cx="831.64" cy="-571.092" rx="99.8806" ry="45.011"/>
<text text-anchor="middle" x="831.64" y="-587.892" font-family="Times,serif" font-size="14.00">image3 (14)</text>
<text text-anchor="start" x="768.972" y="-573.892" font-family="Times,serif" font-size="14.00">input = {Tensor[100]}</text>
<text text-anchor="start" x="768.972" y="-559.892" font-family="Times,serif" font-size="14.00">module = nn.Identity</text>
<text text-anchor="middle" x="831.64" y="-545.892" font-family="Times,serif" font-size="14.00">reverseMap = {}</text>
</a>
</g>
</g>
<!-- n14&#45;&gt;n10 -->
<g id="edge14" class="edge"><title>n14&#45;&gt;n10</title>
<path fill="none" stroke="black" d="M852.625,-526.545C856.985,-517.499 861.624,-507.871 866.126,-498.53"/>
<polygon fill="black" stroke="black" points="869.378,-499.844 870.566,-489.316 863.072,-496.805 869.378,-499.844"/>
</g>
<!-- n15 -->
<g id="node15" class="node"><title>n15</title>
<g id="a_node15"><a xlink:title="[[C]]:&#45;1_">
<ellipse fill="none" stroke="black" cx="1052.64" cy="-940.722" rx="247.275" ry="35.2113"/>
<text text-anchor="middle" x="1052.64" y="-950.522" font-family="Times,serif" font-size="14.00">Node15</text>
<text text-anchor="start" x="885.888" y="-936.522" font-family="Times,serif" font-size="14.00">input = {Tensor[100],Tensor[100],Tensor[100],Tensor[10]}</text>
<text text-anchor="middle" x="1052.64" y="-922.522" font-family="Times,serif" font-size="14.00">reverseMap = {}</text>
</a>
</g>
</g>
<!-- n15&#45;&gt;n13 -->
<g id="edge17" class="edge"><title>n15&#45;&gt;n13</title>
<path fill="none" stroke="black" d="M1052.64,-905.335C1052.64,-897.279 1052.64,-888.499 1052.64,-879.799"/>
<polygon fill="black" stroke="black" points="1056.14,-879.672 1052.64,-869.672 1049.14,-879.672 1056.14,-879.672"/>
</g>
<!-- n16&#45;&gt;n14 -->
<g id="edge18" class="edge"><title>n16&#45;&gt;n14</title>
<path fill="none" stroke="black" d="M803.277,-652.354C806.325,-643.73 809.55,-634.602 812.691,-625.714"/>
<polygon fill="black" stroke="black" points="816.022,-626.793 816.054,-616.198 809.422,-624.46 816.022,-626.793"/>
</g>
</g>
</svg>
